<svg version="1.2" xmlns="http://www.w3.org/2000/svg" viewBox="0 0 776 358" width="776" height="358">
	<style>
		.s0 { fill: #000000;stroke: #ffffff;paint-order:stroke fill markers;stroke-linejoin: round;stroke-width: 18 } 
	</style>
	<g id="layer1">
		<path id="path3023" fill-rule="evenodd" class="s0" d="m402.79 319.72h-34.8v-285.31h17.4 17.4v-6.68-6.68l-43.93-1.16c-24.16-0.64-61.93-2.31-83.94-3.71-22.01-1.4-45.3-2.57-51.76-2.6l-11.74-0.05-1.33 66.11c-0.74 0-3.92-4.32-7.08-9.6-7.86-13.14-26.72-31.66-40.33-39.6-27.74-16.18-65.45-20.12-95.57-9.98-34.79 11.73-54.67 43.46-49.22 78.62 4.15 26.85 21.83 50.59 43.76 58.79 31.17 11.66 65.75 6.11 85.48-13.71 19.51-19.58 22.62-33.31 18.54-81.69-0.53-6.21 4.55-8.7 10.5-5.14 7.14 4.26 18.98 22.53 22.95 35.39 6.17 19.97 7.08 37.09 7.08 133.45v93.55h-48.71q0 6.96 0 13.92h245.3z"/>
		<path class="s0" d="m422.31 11.58c5.15 1.62 35.82 19.67 42.52 23.48q58.8 33.05 116.85 67.42c11.03-4.96 31.93-18.78 43.82-25.32 38.57-21.23 77.6-45.79 116.5-66.16 2.58 13.21 2.47 120.59-0.12 134.09q-28.05 15.85-55.79 32.26-38.92 23.02-78.48 44.9c-6.12-12.98-12.18-31.27-17.18-45.09-0.05 13.56 0.98 26.92 1.46 40.47 0.37 10.7 0.61 14.99-9.64 20.02-13.44-2.38-8.68-47.22-8.66-60.11-5.23 15.56-10.01 29.38-16.06 44.69-24.21-10.87-59-33.61-82.76-46.9-13.55-7.58-39.58-22.23-51.65-30.78-2.42-13.53-2.88-118.9-0.81-132.97z"/>
		<path class="s0" d="m710.98 199.1c1.34 0.61 1.43 0.98 2.56 2.1 1.9 10.18 1.9 50.67-0.39 60.05l-0.18 0.76c-1.76 7.39-34.78 22.5-43.18 26.83-5.6-1.05-12.96-3.28-18.62-4.79-1.8 14.13-4.87 32.58-8.96 46.08-4.97 3.98-17.75 10.91-23.85 14.4-2.83 1.58-2.68 1.5-5.94 1.32-0.19-0.28-0.39-0.56-0.56-0.86-1.52-2.72 16.31-90.84 19.64-99.72 7.03-4.94 49.04-7.98 61.15-9.33 6.67-15.46 4.41-27.08 18.33-36.84z"/>
		<path class="s0" d="m450.36 199.34c16.98 6.54 16.83 20.21 20.8 36.59 19.41 2.11 42.95 4.11 61.86 7.47 8.77 28.44 11.48 65.41 19.02 94.92 0.77 3 0.36 6.38-1.6 8.75-38.65-20.13-28.34-24.04-37.89-63.16-5.75 2.06-11.77 3.98-17.58 5.93-11.01-4.23-41.16-21.22-43.8-32.09-3.48-14.31-1.55-43.26-0.81-58.41z"/>
		<path class="s0" d="m549.31 245.83c10.62 3.51 22.74 10.67 29.78 19.43l0.95 1.2c3.34 0.77 9.91-5.85 13.2-8.23 7.32-5.28 14.76-9.39 22.66-13.66-2.65 16.17-3.95 33.15-6.55 49.66-1.45 9.54-2.47 19.86-3.59 29.51-6.97 0.7-41.89 0.44-44.26-2.85-5.46-7.59-10.71-63.83-12.19-75.06z"/>
	</g>
</svg>